<?xml version="1.0" standalone="no"?>
<!DOCTYPE svg PUBLIC "-//W3C//DTD SVG 20010904//EN"
 "http://www.w3.org/TR/2001/REC-SVG-20010904/DTD/svg10.dtd">
<svg version="1.0" xmlns="http://www.w3.org/2000/svg"
 width="1100.000000pt" height="825.000000pt" viewBox="0 0 1100.000000 825.000000"
 preserveAspectRatio="xMidYMid meet">

<g transform="translate(0.000000,825.000000) scale(0.100000,-0.100000)" fill="#FFFFFF" stroke="none">
<path d="M5542 7503 c-10 -21 -55 -106 -100 -190 -261 -481 -323 -732 -235
-948 70 -169 267 -359 441 -424 123 -46 125 -17 12 215 -211 433 -248 551
-237 749 5 84 26 212 53 315 7 29 83 289 89 308 9 26 -5 10 -23 -25z"/>
<path d="M6065 6079 c-221 -9 -231 -10 -170 -19 28 -5 133 -9 235 -9 532 -3
1079 -90 1377 -219 98 -42 131 -65 181 -126 37 -44 42 -88 16 -142 -23 -48
-31 -50 -67 -16 -18 16 -46 37 -63 45 -47 24 -198 64 -309 81 -55 9 -112 18
-127 21 -15 2 -101 11 -190 19 -931 87 -2139 12 -2497 -155 -66 -30 -90 -52
-91 -81 0 -42 -35 -30 -112 40 -83 75 -86 145 -8 223 26 26 66 57 90 69 23 12
40 24 37 27 -12 11 -149 -72 -186 -112 -99 -107 -46 -205 164 -308 304 -149
961 -247 1655 -247 761 0 1444 112 1740 286 32 19 61 34 64 34 14 0 -7 -217
-35 -363 -13 -64 -21 -72 -124 -125 -214 -111 -570 -186 -1105 -234 -191 -17
-856 -17 -1055 0 -588 51 -964 139 -1179 276 -60 38 -97 88 -113 151 -10 37
-11 38 -12 10 0 -16 8 -59 19 -95 10 -36 19 -55 19 -43 1 22 3 21 48 -13 346
-264 1478 -390 2503 -278 410 45 768 137 928 238 23 14 43 22 46 17 7 -11 -26
-141 -66 -256 -112 -330 -272 -596 -497 -828 -285 -294 -609 -463 -992 -518
-191 -27 -474 1 -675 67 -107 34 -320 140 -428 212 -365 244 -689 718 -832
1217 -12 44 -23 73 -23 64 -1 -9 10 -57 25 -105 90 -313 233 -601 423 -849
130 -171 369 -381 549 -483 271 -154 523 -222 822 -222 283 0 501 54 773 192
200 101 459 322 626 535 137 176 284 448 366 680 l50 142 75 35 c116 55 186
76 291 87 80 9 106 8 159 -6 106 -28 147 -58 190 -145 20 -39 22 -55 17 -130
-6 -96 -36 -180 -108 -305 -87 -152 -122 -178 -305 -230 -118 -33 -279 -93
-272 -100 2 -2 34 5 72 15 38 11 112 27 165 36 53 8 119 26 147 39 162 72 388
433 425 676 26 169 -35 292 -176 354 -56 25 -68 27 -175 23 -143 -5 -243 -37
-368 -115 -47 -29 -87 -51 -89 -49 -3 3 1 38 8 78 18 107 16 287 -5 388 -39
185 -70 227 -223 303 -346 173 -1005 272 -1628 246z m1028 -786 c-7 -2 -19 -2
-25 0 -7 3 -2 5 12 5 14 0 19 -2 13 -5z m-73 -14 c-48 -11 -283 -45 -405 -58
-273 -28 -520 -35 -866 -23 -317 11 -662 41 -678 58 -3 4 15 4 41 1 271 -36
1198 -34 1598 2 129 12 240 23 245 25 6 3 30 4 55 4 l45 0 -35 -9z"/>
<path d="M4798 5973 c7 -3 16 -2 19 1 4 3 -2 6 -13 5 -11 0 -14 -3 -6 -6z"/>
<path d="M4708 5953 c7 -3 16 -2 19 1 4 3 -2 6 -13 5 -11 0 -14 -3 -6 -6z"/>
<path d="M4268 3883 c6 -2 18 -2 25 0 6 3 1 5 -13 5 -14 0 -19 -2 -12 -5z"/>
<path d="M4105 3846 c-372 -100 -656 -251 -715 -381 -91 -200 110 -380 595
-535 181 -58 526 -134 730 -161 39 -5 81 -11 95 -14 43 -9 197 -25 425 -45
319 -28 1181 -29 1495 -1 333 30 530 57 820 110 412 76 800 223 968 367 78 67
130 191 86 208 -9 3 -59 6 -113 6 -100 0 -121 -7 -121 -42 0 -31 -36 -92 -82
-138 -363 -366 -1794 -568 -3123 -440 -159 15 -424 51 -525 71 -124 24 -160
32 -276 60 -334 78 -617 206 -726 327 -56 62 -72 99 -73 167 0 83 43 155 134
223 117 87 212 133 431 208 149 51 140 55 -25 10z"/>
<path d="M4873 3531 c-279 -110 -295 -249 -41 -365 495 -228 1677 -249 2288
-40 161 55 280 140 280 199 0 24 -3 25 -59 25 -55 0 -59 -2 -65 -25 -19 -74
-158 -161 -331 -208 -278 -76 -543 -107 -913 -107 -544 0 -982 78 -1181 211
-92 62 -120 124 -85 192 21 39 48 62 132 109 80 45 72 47 -25 9z"/>
<path d="M2845 3161 c-220 -63 -445 -332 -541 -648 -36 -117 -45 -333 -19
-433 54 -208 219 -362 372 -347 231 23 506 409 619 867 26 103 26 301 0 385
-22 74 -61 138 -97 159 -18 11 -49 16 -91 15 -35 0 -79 4 -98 10 -46 14 -73
13 -145 -8z m356 -606 c-45 -254 -266 -619 -430 -709 -62 -33 -132 -42 -185
-23 -82 29 -77 46 53 187 164 178 214 253 277 413 21 53 41 94 46 91 7 -5 213
99 233 117 16 16 18 -7 6 -76z m-382 -152 c-34 -81 -105 -204 -173 -303 -36
-52 -79 -121 -96 -152 -17 -32 -34 -58 -38 -58 -45 0 -43 343 2 379 13 10 170
94 241 129 28 13 54 30 58 38 4 8 12 14 17 14 5 0 0 -21 -11 -47z"/>
<path d="M7315 2452 l-50 -17 -131 -338 c-167 -428 -177 -452 -231 -536 -49
-77 -119 -131 -170 -131 -27 0 -32 5 -46 46 l-15 46 69 176 c184 467 251 644
246 648 -2 3 -26 -3 -52 -13 l-47 -18 -82 -215 c-121 -314 -215 -548 -232
-583 -21 -40 -102 -125 -136 -143 -31 -16 -68 -19 -68 -4 0 5 9 33 19 62 67
185 68 298 2 298 -47 0 -162 -101 -230 -202 -77 -116 -111 -212 -111 -321 0
-114 44 -160 113 -119 40 23 112 112 158 194 30 55 39 63 69 69 45 7 89 30
119 63 14 14 28 26 32 26 4 0 -6 -35 -23 -77 -155 -398 -194 -673 -95 -673
l21 0 -22 16 c-29 20 -28 50 7 165 27 90 189 517 211 559 9 17 14 18 31 7 22
-13 22 -17 4 -182 l-5 -40 9 35 c5 19 13 65 16 102 l7 68 32 0 c39 0 116 49
147 92 12 16 23 27 26 24 3 -2 -13 -53 -35 -113 -91 -242 -124 -376 -123 -492
0 -91 14 -121 56 -121 28 0 87 62 118 125 48 97 129 353 126 402 -1 10 -5 0
-11 -22 -27 -112 -83 -285 -114 -348 -33 -69 -96 -147 -120 -147 -14 0 -24 23
-24 53 0 33 38 174 64 242 184 473 176 456 198 444 20 -11 21 -18 15 -108 -6
-112 0 -109 11 5 l7 79 40 6 c52 7 71 18 120 70 l40 43 -54 -47 c-86 -75 -134
-78 -158 -9 l-14 44 92 236 c51 131 123 316 160 411 38 96 67 176 66 177 -1 1
-24 -5 -52 -14z m-921 -738 c12 -5 16 -20 16 -58 0 -86 -11 -127 -34 -136 -49
-18 -70 -67 -54 -129 9 -36 7 -46 -33 -123 -50 -94 -127 -182 -156 -176 -47
10 -1 179 117 423 51 104 111 205 124 205 3 0 11 -3 20 -6z"/>
<path d="M3420 2378 c-19 -14 -39 -40 -49 -65 -9 -23 -31 -57 -48 -75 -153
-158 -82 -507 163 -811 152 -188 332 -300 540 -337 117 -20 298 26 361 93 57
59 73 103 73 198 0 125 -53 266 -168 444 -181 282 -399 474 -624 549 -102 35
-201 36 -248 4z m553 -256 c147 -105 366 -435 413 -622 34 -137 -12 -254 -112
-284 -25 -8 -30 2 -86 164 -72 205 -118 289 -235 427 l-54 64 0 142 c0 78 1
146 1 150 0 10 9 5 73 -41z m-32 -429 c46 -53 129 -183 193 -303 31 -56 67
-117 81 -135 14 -19 25 -37 25 -41 0 -3 -24 -3 -52 0 -60 8 -145 52 -232 120
l-58 45 -2 176 c0 96 2 175 5 175 4 0 22 -17 40 -37z"/>
<path d="M7999 2228 c-75 -61 -150 -165 -221 -303 -115 -226 -210 -361 -283
-406 -16 -11 -25 -19 -19 -19 22 0 90 58 130 111 23 30 63 91 89 136 25 46 51
85 56 89 5 3 9 -19 9 -51 0 -96 40 -145 120 -145 56 0 94 22 151 89 41 48 184
289 176 298 -2 2 -31 -45 -65 -104 -103 -186 -183 -273 -249 -273 -65 0 -78
65 -38 197 13 45 22 56 57 74 85 44 196 192 206 276 9 84 -39 96 -119 31z m92
10 c2 -45 -3 -64 -37 -138 -27 -59 -47 -85 -89 -120 -30 -25 -60 -47 -66 -49
-20 -6 -3 46 51 154 71 144 138 217 141 153z"/>
<path d="M6051 2229 c-39 -16 -18 -19 24 -4 22 8 31 14 20 14 -11 0 -31 -5
-44 -10z"/>
<path d="M6133 2213 c8 -10 17 -34 20 -53 l4 -35 1 33 c2 37 -13 72 -30 72 -6
0 -5 -7 5 -17z"/>
<path d="M5964 2178 c-122 -78 -367 -357 -476 -540 -23 -39 -50 -73 -61 -76
-12 -3 -15 -7 -7 -12 9 -5 6 -20 -9 -56 -51 -121 -66 -269 -36 -355 55 -158
114 -219 213 -219 140 0 308 166 358 355 18 66 17 120 -1 183 -19 63 -57 93
-123 98 l-47 3 49 -9 c76 -14 105 -49 118 -143 8 -63 7 -86 -7 -134 -21 -75
-72 -165 -130 -230 -49 -56 -148 -113 -197 -113 -41 0 -102 34 -130 72 -21 30
-23 44 -23 138 0 112 18 187 88 363 25 65 36 81 66 98 20 11 26 17 14 14 -33
-9 -30 8 18 100 98 187 238 382 322 446 78 60 79 67 1 17z"/>
<path d="M7574 2102 c-82 -60 -164 -166 -220 -285 -18 -40 -45 -92 -59 -117
-19 -32 -21 -38 -7 -22 11 12 23 22 26 22 3 0 6 -25 6 -55 0 -92 42 -146 110
-144 24 1 28 3 12 6 -38 7 -55 45 -48 106 13 99 30 140 68 162 77 45 152 128
192 215 56 119 13 179 -80 112z m79 -3 c6 -22 -19 -102 -51 -164 -26 -52 -126
-145 -154 -145 -21 0 97 242 143 294 35 41 54 45 62 15z"/>
<path d="M6141 2104 c0 -11 3 -14 6 -6 3 7 2 16 -1 19 -3 4 -6 -2 -5 -13z"/>
<path d="M6116 2042 c-65 -137 -206 -272 -395 -380 -42 -24 -67 -41 -56 -37
42 13 168 91 243 150 43 34 101 93 130 131 54 72 107 162 100 170 -3 2 -12
-13 -22 -34z"/>
<path d="M5503 2013 c26 -2 67 -2 90 0 23 2 2 3 -48 3 -49 0 -68 -1 -42 -3z"/>
<path d="M5428 2003 c7 -3 16 -2 19 1 4 3 -2 6 -13 5 -11 0 -14 -3 -6 -6z"/>
<path d="M5328 1974 c-27 -13 -48 -27 -48 -29 0 -3 21 5 48 18 26 14 54 27 62
30 13 5 13 5 0 6 -8 0 -36 -11 -62 -25z"/>
<path d="M5216 1899 c-104 -92 -114 -199 -28 -291 25 -27 118 -66 129 -54 4 3
0 6 -8 6 -8 0 -37 11 -66 24 -92 43 -131 154 -82 236 11 19 42 54 67 77 26 23
44 42 41 43 -3 0 -27 -19 -53 -41z"/>
<path d="M5725 1533 c-58 -30 -137 -118 -158 -175 -13 -35 3 -17 27 30 28 55
85 111 141 140 22 12 36 21 30 21 -5 0 -23 -7 -40 -16z"/>
<path d="M5546 1315 c-9 -26 -7 -32 5 -12 6 10 9 21 6 23 -2 3 -7 -2 -11 -11z"/>
<path d="M5531 1264 c0 -11 3 -14 6 -6 3 7 2 16 -1 19 -3 4 -6 -2 -5 -13z"/>
<path d="M6656 1175 c-16 -81 -78 -269 -111 -336 -20 -38 -33 -69 -30 -69 27
0 166 392 153 432 -3 7 -8 -5 -12 -27z"/>
<path d="M6474 729 c-20 -22 -23 -28 -8 -19 18 11 50 50 41 50 -2 0 -16 -14
-33 -31z"/>
</g>
</svg>
